# xmcd
#
# Track frame offsets: 
#        150
#        2371
#        20375
#        50024
#        71297
#        85038
#        87442
#        101167
#        121685
#        138286
#        154242
#        158205
#        170854
#
# Disc length: 2528 seconds
#
# Revision: 3
# Processed by: cddbd v1.5.2PL0 Copyright (c) Steve Scherf et al.
# Submitted via: ExactAudioCopy v1.0b3
#
DISCID=9c09de0d
DTITLE=Soyka Yanina - Neopositive
DYEAR=1992
DGENRE=Vocal
TTITLE0=Hej kiebys miala...
TTITLE1=Tolerancja (Na mily Bog)
TTITLE2=Like A Rolling Stone
TTITLE3=Kiedy jestes taka bliska
TTITLE4=You've Got To Know Angel
TTITLE5=Abstract Uno
TTITLE6=Zle sny
TTITLE7=Handwriting One The Wall
TTITLE8=Pay Attention
TTITLE9=Love In Vain
TTITLE10=Zbyszko
TTITLE11=Disappear
TTITLE12=Moja Ojczyzna
EXTD=
EXTT0=
EXTT1=
EXTT2=
EXTT3=
EXTT4=
EXTT5=
EXTT6=
EXTT7=
EXTT8=
EXTT9=
EXTT10=
EXTT11=
EXTT12=
PLAYORDER=
